<svg width="32" height="33" viewBox="0 0 32 33" fill="none" xmlns="http://www.w3.org/2000/svg">
<path d="M4.81888 26.8803C6.68809 28.2732 8.77735 29.0062 11.0497 29.0062C12.4426 29.0062 13.9086 28.7495 15.448 28.1998C15.9245 28.0165 16.181 27.5033 15.9977 27.0268C15.8143 26.5502 15.3012 26.2938 14.8246 26.4771C11.3792 27.6867 8.48383 27.3568 5.91808 25.4508C5.51489 25.1576 4.9284 25.231 4.63511 25.6342C4.30556 26.0005 4.41549 26.5871 4.81868 26.8803L4.81888 26.8803ZM6.83483 18.1937C11.2331 16.0312 15.0083 16.1412 18.1238 18.4869C19.4068 19.4398 20.616 20.7593 21.6791 22.4454C21.2394 19.8429 19.9198 18.0103 17.9039 16.6908L16.6209 6.35481L15.1915 5.14527L15.9978 8.37076C15.0449 9.76362 13.5787 10.0569 11.8928 9.72684C9.65701 8.92048 8.99739 6.17154 9.76697 3.78919L14.2018 0.197311C17.6472 -0.499153 20.2496 0.673616 22.1187 3.31264C27.1035 10.0567 30.6221 16.984 31.2452 24.2779C31.9048 25.7439 31.0253 27.43 29.486 27.8332L27.91 28.1998C20.9827 33.6977 12.3327 34.614 1.59352 30.2158L0.530724 29.8126L0.530212 15.8113C3.38911 15.005 5.44159 15.9581 6.83445 18.1939L6.83483 18.1937Z" fill="white"/>
</svg>
