<svg width="61" height="64" viewBox="0 0 61 64" fill="none" xmlns="http://www.w3.org/2000/svg">
<path d="M9.30844 52.1315C12.9336 54.8328 16.9855 56.2544 21.3925 56.2544C24.0938 56.2544 26.9371 55.7566 29.9225 54.6906C30.8467 54.335 31.344 53.3398 30.9885 52.4156C30.633 51.4914 29.6378 50.9941 28.7136 51.3496C22.0316 53.6953 16.4162 53.0557 11.4402 49.3592C10.6583 48.7905 9.52085 48.9328 8.95206 49.7147C8.31292 50.4253 8.52613 51.5628 9.30807 52.1315L9.30844 52.1315ZM13.2182 35.2847C21.7481 31.0909 29.0698 31.3041 35.1119 35.8534C37.6001 37.7015 39.9454 40.2605 42.0071 43.5305C41.1542 38.4833 38.5952 34.9291 34.6854 32.3701L32.1973 12.3245L29.425 9.97871L30.9888 16.2342C29.1408 18.9355 26.2972 19.5043 23.0276 18.8642C18.6915 17.3003 17.4122 11.9691 18.9047 7.34874L27.5056 0.382663C34.1876 -0.968054 39.2347 1.30641 42.8597 6.42452C52.5271 19.5039 59.3511 32.9387 60.5595 47.0844C61.8388 49.9275 60.1331 53.1976 57.1476 53.9795L54.0913 54.6906C40.6565 65.3531 23.8807 67.1302 3.05321 58.6003L0.992031 57.8183L0.991039 30.6644C6.53557 29.1005 10.5161 30.949 13.2174 35.2851L13.2182 35.2847Z" fill="url(#paint0_linear_341_5989)"/>
<defs>
<linearGradient id="paint0_linear_341_5989" x1="30.9901" y1="0" x2="30.9901" y2="64" gradientUnits="userSpaceOnUse">
<stop stop-color="#FFCB65"/>
<stop offset="0.0001" stop-color="#FFB865"/>
<stop offset="0.434957" stop-color="#FF8E4F"/>
<stop offset="1" stop-color="#FFA876"/>
</linearGradient>
</defs>
</svg>
