<svg width="27" height="27" viewBox="0 0 27 27" fill="none" xmlns="http://www.w3.org/2000/svg">
<path d="M8.97742 6.41272C9.62189 6.41272 10.2018 6.46852 10.7336 6.58232C11.2621 6.69502 11.7129 6.88103 12.0936 7.13816C12.4689 7.39529 12.7622 7.73667 12.9733 8.16559C13.178 8.58903 13.2797 9.11861 13.2797 9.74448C13.2797 10.4229 13.1265 10.9897 12.8191 11.4415C12.5094 11.8945 12.0531 12.2655 11.4448 12.5521C12.2731 12.7918 12.8869 13.2108 13.2939 13.8061C13.7032 14.4068 13.9034 15.1256 13.9034 15.9681C13.9034 16.652 13.7732 17.2396 13.5117 17.733C13.2597 18.2192 12.8941 18.6373 12.446 18.952C11.9818 19.2752 11.4633 19.5124 10.9152 19.6522C10.3406 19.8031 9.74879 19.8788 9.15468 19.8776L2.62793 19.8776L2.62793 6.41272L8.97742 6.41272ZM8.59337 11.853C9.11857 11.853 9.55405 11.7282 9.89762 11.4755C10.239 11.226 10.4042 10.8146 10.4042 10.2511C10.4042 9.93815 10.3484 9.67992 10.239 9.4775C10.1324 9.28276 9.97463 9.12083 9.78273 9.0092C9.58188 8.89007 9.3602 8.81024 9.12951 8.77395C8.87806 8.72705 8.62265 8.7047 8.36687 8.7072L5.59314 8.7072L5.59314 11.853L8.59337 11.853ZM8.75859 17.5853C9.05073 17.5853 9.32865 17.5602 9.59016 17.5011C9.85386 17.4442 10.088 17.3523 10.2871 17.2155C10.4863 17.0842 10.6504 16.9059 10.7686 16.6783C10.8879 16.4529 10.9458 16.1585 10.9458 15.8051C10.9458 15.1114 10.75 14.6179 10.3626 14.3192C9.97422 14.0238 9.45339 13.8772 8.81549 13.8772L5.59314 13.8772L5.59314 17.5864L8.75859 17.5864L8.75859 17.5853ZM18.1302 17.5405C18.5318 17.9322 19.1106 18.1291 19.8634 18.1291C20.4028 18.1291 20.8689 17.9924 21.2617 17.721C21.6491 17.4486 21.8854 17.1575 21.9762 16.8566L24.3342 16.8566C23.9556 18.0296 23.3811 18.8677 22.5955 19.3721C21.8197 19.8787 20.8755 20.1304 19.7725 20.1304C19.0044 20.1304 18.3129 20.0067 17.6936 19.7616C17.0992 19.5302 16.562 19.1725 16.1191 18.7134C15.6835 18.2436 15.3468 17.6911 15.1289 17.0886C14.8894 16.4223 14.7708 15.7187 14.7787 15.0107C14.7787 14.282 14.9002 13.6004 15.1387 12.9712C15.3651 12.363 15.7128 11.8073 16.1607 11.3376C16.6038 10.878 17.129 10.5159 17.7407 10.25C18.3839 9.97948 19.0759 9.84464 19.7736 9.8539C20.5986 9.8539 21.3197 10.0136 21.939 10.3353C22.5396 10.6424 23.0603 11.0852 23.4599 11.6287C23.8571 12.1681 24.1405 12.7863 24.3167 13.4789C24.4928 14.1704 24.5541 14.8926 24.5038 15.6486L17.4671 15.6486C17.4682 16.4189 17.7275 17.1488 18.1302 17.5405ZM21.207 12.4186C20.8886 12.0663 20.3503 11.8759 19.6916 11.8759C19.2638 11.8759 18.9103 11.9471 18.6259 12.0937C18.3657 12.2251 18.135 12.4078 17.9475 12.6309C17.7828 12.8335 17.6607 13.0672 17.5886 13.3181C17.5255 13.5272 17.4848 13.7425 17.4671 13.9603L21.8241 13.9603C21.7607 13.2776 21.5265 12.7732 21.207 12.4186ZM16.92 7.31651L22.3789 7.31651L22.3789 8.64593L16.92 8.64593L16.92 7.31651Z" fill="white"/>
</svg>
