<svg width="16" height="21" viewBox="0 0 16 21" fill="none" xmlns="http://www.w3.org/2000/svg">
<path d="M15.298 9.55698C14.8662 8.585 14.2384 7.7126 13.4539 6.99436L12.8066 6.40043C12.7846 6.38081 12.7582 6.36689 12.7295 6.35989C12.7009 6.35289 12.671 6.35302 12.6425 6.36027C12.6139 6.36751 12.5876 6.38166 12.5658 6.40146C12.544 6.42126 12.5274 6.44611 12.5174 6.47383L12.2282 7.30357C12.048 7.8241 11.7166 8.35575 11.2472 8.87851C11.2161 8.91187 11.1805 8.92077 11.156 8.923C11.1315 8.92522 11.0937 8.92077 11.0604 8.88963C11.0292 8.86294 11.0136 8.82289 11.0159 8.78285C11.0982 7.44371 10.6978 5.93328 9.82132 4.28939C9.09614 2.92355 8.08844 1.85802 6.82938 1.11504L5.91067 0.574492C5.79055 0.503308 5.63706 0.596737 5.64373 0.736879L5.69267 1.80463C5.72604 2.53427 5.64151 3.17937 5.4413 3.71547C5.19661 4.37169 4.84514 4.9812 4.39579 5.52843C4.08308 5.90873 3.72865 6.25272 3.33916 6.55392C2.40111 7.27502 1.63835 8.199 1.108 9.25667C0.578958 10.3236 0.30338 11.4982 0.302734 12.6891C0.302734 13.739 0.509612 14.7556 0.918918 15.7144C1.31413 16.6374 1.88448 17.4752 2.59841 18.1813C3.31914 18.8932 4.15555 19.4537 5.08761 19.843C6.05304 20.2479 7.0763 20.4525 8.13293 20.4525C9.18957 20.4525 10.2128 20.2479 11.1783 19.8452C12.108 19.4582 12.9535 18.8938 13.6675 18.1835C14.3882 17.4717 14.9532 16.6397 15.3469 15.7166C15.7556 14.7604 15.9653 13.7311 15.9631 12.6913C15.9631 11.6057 15.7407 10.5513 15.298 9.55698Z" fill="url(#paint0_linear_338_982)"/>
<defs>
<linearGradient id="paint0_linear_338_982" x1="8.13294" y1="0.550049" x2="8.13294" y2="20.4525" gradientUnits="userSpaceOnUse">
<stop stop-color="#FFF511"/>
<stop offset="1" stop-color="#D60E00"/>
</linearGradient>
</defs>
</svg>
