<svg width="20" height="20" viewBox="0 0 20 20" fill="none" xmlns="http://www.w3.org/2000/svg">
<g clip-path="url(#clip0_338_817)">
<path d="M19.9346 10.2798C19.9346 4.93654 15.603 0.604981 10.2598 0.604981C4.91652 0.604981 0.584961 4.93653 0.58496 10.2798C0.58496 15.1087 4.12288 19.1113 8.74808 19.8371L8.74808 13.0764L6.29158 13.0764L6.29158 10.2798L8.74808 10.2798L8.74808 8.14831C8.74808 5.72356 10.1925 4.3842 12.4024 4.3842C13.4606 4.3842 14.5681 4.57316 14.5681 4.57316L14.5681 6.95407L13.3481 6.95407C12.1464 6.95407 11.7715 7.6999 11.7715 8.46576L11.7715 10.2798L14.4547 10.2798L14.0258 13.0764L11.7715 13.0764L11.7715 19.8371C16.3967 19.1113 19.9346 15.1087 19.9346 10.2798Z" fill="white"/>
</g>
<defs>
<clipPath id="clip0_338_817">
<rect width="19.3496" height="19.3496" fill="white" transform="translate(0.584961 0.60498)"/>
</clipPath>
</defs>
</svg>
