<svg width="95" height="119" viewBox="0 0 95 119" fill="none" xmlns="http://www.w3.org/2000/svg">
<path d="M90.1759 54.341C87.5975 48.5806 83.8493 43.4102 79.1658 39.1536L75.301 35.6335C75.1697 35.5173 75.0118 35.4348 74.841 35.3933C74.6701 35.3518 74.4916 35.3526 74.3212 35.3955C74.1507 35.4385 73.9935 35.5223 73.8633 35.6397C73.7331 35.757 73.6339 35.9043 73.5744 36.0686L71.8478 40.9861C70.7721 44.071 68.7932 47.2219 65.9909 50.32C65.8049 50.5178 65.5924 50.5705 65.4463 50.5837C65.3002 50.5969 65.0744 50.5705 64.8752 50.386C64.6893 50.2278 64.5963 49.9905 64.6096 49.7532C65.101 41.8166 62.7104 32.865 57.4776 23.1223C53.148 15.0276 47.1316 8.71267 39.6144 4.30935L34.1293 1.10574C33.4121 0.683865 32.4957 1.23757 32.5356 2.06814L32.8278 8.39626C33.027 12.7205 32.5223 16.5437 31.327 19.721C29.8661 23.6101 27.7676 27.2224 25.0848 30.4656C23.2178 32.7195 21.1017 34.7581 18.7763 36.5432C13.1757 40.8169 8.62166 46.2929 5.45525 52.5613C2.29664 58.8843 0.651315 65.8458 0.647461 72.9035C0.647461 79.1262 1.88261 85.1511 4.32635 90.8332C6.68596 96.3039 10.0912 101.269 14.3536 105.454C18.6567 109.673 23.6505 112.995 29.2153 115.302C34.9793 117.701 41.0886 118.914 47.3972 118.914C53.7058 118.914 59.8151 117.701 65.5791 115.315C71.1302 113.021 76.1781 109.676 80.4408 105.467C84.7439 101.248 88.1173 96.3176 90.4681 90.8464C92.9081 85.1798 94.1599 79.0792 94.1469 72.9167C94.1469 66.4831 92.8188 60.2341 90.1759 54.341Z" fill="url(#paint0_linear_338_1198)"/>
<defs>
<linearGradient id="paint0_linear_338_1198" x1="47.3973" y1="0.960876" x2="47.3973" y2="118.914" gradientUnits="userSpaceOnUse">
<stop stop-color="#FFF511"/>
<stop offset="1" stop-color="#D60E00"/>
</linearGradient>
</defs>
</svg>
