<svg width="26" height="33" viewBox="0 0 26 33" fill="none" xmlns="http://www.w3.org/2000/svg">
<path d="M24.8957 14.9343C24.1787 13.3226 23.1364 11.8761 21.8341 10.6852L20.7594 9.70043C20.7229 9.66791 20.6789 9.64483 20.6314 9.63322C20.5839 9.62161 20.5343 9.62182 20.4869 9.63384C20.4395 9.64585 20.3958 9.66931 20.3596 9.70214C20.3234 9.73497 20.2958 9.77618 20.2792 9.82214L19.7991 11.1979C19.5 12.061 18.9497 12.9425 18.1704 13.8093C18.1187 13.8646 18.0596 13.8794 18.019 13.8831C17.9784 13.8868 17.9156 13.8794 17.8602 13.8277C17.8085 13.7835 17.7826 13.7171 17.7863 13.6507C17.923 11.4303 17.2582 8.92586 15.8031 6.20014C14.5991 3.93547 12.9261 2.16873 10.8358 0.936808L9.3105 0.0405286C9.11107 -0.0775 8.85624 0.0774124 8.86732 0.309781L8.94857 2.08021C9.00397 3.29 8.86363 4.35964 8.53124 5.24854C8.12499 6.33661 7.54147 7.34723 6.79545 8.25458C6.27627 8.88516 5.68783 9.45551 5.04119 9.95493C3.4838 11.1506 2.21743 12.6826 1.33693 14.4363C0.458596 16.2053 0.00107162 18.153 0 20.1275C0 21.8684 0.343465 23.554 1.02301 25.1437C1.67916 26.6743 2.62607 28.0634 3.81136 29.2342C5.00795 30.4144 6.39658 31.3439 7.94403 31.9894C9.54687 32.6607 11.2457 33 13 33C14.7542 33 16.4531 32.6607 18.0559 31.9931C19.5996 31.3514 21.0033 30.4155 22.1886 29.2378C23.3852 28.0576 24.3233 26.6781 24.977 25.1474C25.6555 23.5621 26.0036 21.8553 26 20.1312C26 18.3313 25.6307 16.583 24.8957 14.9343Z" fill="white"/>
</svg>
