<svg width="21" height="20" viewBox="0 0 21 20" fill="none" xmlns="http://www.w3.org/2000/svg">
<g clip-path="url(#clip0_338_818)">
<path d="M10.5719 1.90189C13.3415 1.90189 13.6695 1.91323 14.7588 1.95858C15.771 2.00015 16.3177 2.15888 16.6821 2.29115C17.164 2.46499 17.5122 2.67663 17.8726 3.01298C18.237 3.35311 18.4597 3.67435 18.646 4.12407C18.7877 4.4642 18.9577 4.97818 19.0023 5.9192C19.0509 6.93959 19.063 7.24571 19.063 9.82692C19.063 12.4119 19.0509 12.718 19.0023 13.7346C18.9577 14.6794 18.7877 15.1896 18.646 15.5298C18.4597 15.9795 18.2329 16.3045 17.8726 16.6409C17.5081 16.981 17.164 17.1888 16.6821 17.3627C16.3177 17.495 15.767 17.6537 14.7588 17.6953C13.6655 17.7406 13.3375 17.7519 10.5719 17.7519C7.80229 17.7519 7.47431 17.7406 6.38508 17.6953C5.37279 17.6537 4.82615 17.495 4.46173 17.3627C3.97988 17.1888 3.63165 16.9772 3.27127 16.6409C2.90685 16.3007 2.68414 15.9795 2.49788 15.5298C2.35616 15.1896 2.1861 14.6757 2.14156 13.7346C2.09297 12.7142 2.08082 12.4081 2.08082 9.82692C2.08082 7.24193 2.09297 6.93581 2.14156 5.9192C2.1861 4.9744 2.35616 4.4642 2.49788 4.12407C2.68414 3.67434 2.9109 3.34933 3.27127 3.01298C3.6357 2.67285 3.97988 2.46499 4.46173 2.29115C4.82615 2.15888 5.37684 2.00015 6.38508 1.95858C7.47431 1.91323 7.80229 1.90189 10.5719 1.90189ZM10.5719 0.159669C7.75775 0.159668 7.40547 0.171006 6.30005 0.216357C5.19868 0.261707 4.44148 0.427993 3.78552 0.666084C3.10121 0.915512 2.52218 1.2443 1.9472 1.78473C1.36817 2.32138 1.01589 2.86181 0.748643 3.49672C0.493545 4.11273 0.315382 4.81567 0.266792 5.84362C0.218202 6.87912 0.206054 7.20792 0.206054 9.83447C0.206054 12.461 0.218201 12.7898 0.266791 13.8216C0.315381 14.8495 0.493545 15.5562 0.748642 16.1684C1.01589 16.8071 1.36816 17.3476 1.9472 17.8842C2.52218 18.4209 3.10121 18.7534 3.78147 18.9991C4.44148 19.2372 5.19463 19.4035 6.296 19.4488C7.40142 19.4942 7.7537 19.5055 10.5679 19.5055C13.382 19.5055 13.7343 19.4942 14.8397 19.4488C15.9411 19.4035 16.6983 19.2372 17.3543 18.9991C18.0345 18.7534 18.6136 18.4209 19.1885 17.8842C19.7635 17.3476 20.1199 16.8071 20.383 16.1722C20.6381 15.5562 20.8163 14.8533 20.8649 13.8253C20.9135 12.7936 20.9256 12.4648 20.9256 9.83826C20.9256 7.2117 20.9135 6.8829 20.8649 5.85118C20.8163 4.82323 20.6381 4.11651 20.383 3.50428C20.1279 2.86181 19.7757 2.32138 19.1966 1.78473C18.6217 1.24808 18.0426 0.915513 17.3624 0.669864C16.7024 0.431773 15.9492 0.265487 14.8478 0.220136C13.7384 0.171006 13.3861 0.159669 10.5719 0.159669Z" fill="white"/>
<path d="M10.5717 4.86475C7.63203 4.86475 5.24707 7.09071 5.24707 9.83442C5.24707 12.5781 7.63203 14.8041 10.5717 14.8041C13.5114 14.8041 15.8964 12.5781 15.8964 9.83442C15.8964 7.09071 13.5114 4.86475 10.5717 4.86475ZM10.5717 13.0581C8.66457 13.0581 7.11778 11.6144 7.11778 9.83442C7.11778 8.05441 8.66457 6.61075 10.5717 6.61075C12.4789 6.61075 14.0257 8.05441 14.0257 9.83442C14.0257 11.6144 12.4789 13.0581 10.5717 13.0581Z" fill="white"/>
<path d="M17.3504 4.66816C17.3504 5.31063 16.7917 5.82838 16.1074 5.82838C15.419 5.82838 14.8643 5.30685 14.8643 4.66816C14.8643 4.02569 15.423 3.50793 16.1074 3.50793C16.7917 3.50793 17.3504 4.02947 17.3504 4.66816Z" fill="white"/>
</g>
<defs>
<clipPath id="clip0_338_818">
<rect width="20.7317" height="19.3496" fill="white" transform="translate(0.206055 0.159668)"/>
</clipPath>
</defs>
</svg>
