<svg width="21" height="21" viewBox="0 0 21 21" fill="none" xmlns="http://www.w3.org/2000/svg">
<g clip-path="url(#clip0_338_819)">
<path d="M19.4031 0.71045L1.73664 0.710449C0.890364 0.710449 0.206055 1.33402 0.206055 2.10498L0.206054 18.6617C0.206054 19.4327 0.890363 20.0601 1.73664 20.0601L19.4031 20.0601C20.2494 20.0601 20.9378 19.4327 20.9378 18.6655L20.9378 2.10498C20.9378 1.33402 20.2494 0.71045 19.4031 0.71045ZM6.35674 17.1992L3.27937 17.1992L3.27937 7.96277L6.35674 7.96277L6.35674 17.1992ZM4.81805 6.70429C3.83006 6.70429 3.03237 5.95979 3.03237 5.04144C3.03237 4.12309 3.83006 3.37858 4.81805 3.37858C5.802 3.37858 6.59969 4.12309 6.59969 5.04144C6.59969 5.95601 5.802 6.70429 4.81805 6.70429ZM17.8726 17.1992L14.7992 17.1992L14.7992 12.7095C14.7992 11.64 14.779 10.2605 13.1998 10.2605C11.6004 10.2605 11.3575 11.4283 11.3575 12.6339L11.3575 17.1992L8.28819 17.1992L8.28819 7.96277L11.236 7.96277L11.236 9.22504L11.2765 9.22504C11.6854 8.49942 12.6896 7.73224 14.1838 7.73224C17.2976 7.73224 17.8726 9.64453 17.8726 12.1313L17.8726 17.1992Z" fill="white"/>
</g>
<defs>
<clipPath id="clip0_338_819">
<rect width="20.7317" height="19.3496" fill="white" transform="translate(0.206055 0.710449)"/>
</clipPath>
</defs>
</svg>
