<svg width="50" height="64" viewBox="0 0 50 64" fill="none" xmlns="http://www.w3.org/2000/svg">
<path fill-rule="evenodd" clip-rule="evenodd" d="M7.61799 7.10262C12.1647 2.55512 18.3323 0.000259903 24.7634 0.000259903L24.7631 0C31.1917 0.00753415 37.3547 2.56499 41.9007 7.11042C46.4461 11.6564 49.0035 17.8196 49.0111 24.248C49.0111 30.6788 46.4563 36.8464 41.9087 41.3934C37.362 45.9409 31.1942 48.4957 24.7634 48.4957C18.3326 48.4957 12.165 45.9409 7.61799 41.3934C3.07048 36.8467 0.515625 30.6788 0.515625 24.248C0.515625 17.8172 3.07048 11.6496 7.61799 7.10262ZM11.9039 37.108C15.3148 40.5184 19.9403 42.4344 24.7634 42.4344C29.5848 42.4293 34.2074 40.5112 37.6168 37.1019C41.0261 33.6926 42.9442 29.07 42.9492 24.2485C42.9492 19.4255 41.0332 14.7999 37.6229 11.389C34.212 7.97866 29.5864 6.06265 24.7634 6.06265C19.9403 6.06265 15.3148 7.97866 11.9039 11.389C8.49351 14.7999 6.5775 19.4255 6.5775 24.2485C6.5775 29.0715 8.49351 33.6971 11.9039 37.108ZM24.7625 9.09326C20.7433 9.09326 16.8884 10.6901 14.0463 13.5322C11.2043 16.3742 9.60742 20.2291 9.60742 24.2483C9.60742 28.2675 11.2043 32.1224 14.0463 34.9645C16.8884 37.8065 20.7433 39.4034 24.7625 39.4034C28.7817 39.4034 32.6366 37.8065 35.4786 34.9645C38.3207 32.1224 39.9176 28.2675 39.9176 24.2483C39.913 20.2306 38.3151 16.3783 35.4736 13.5372C32.6326 10.6957 28.7803 9.09781 24.7625 9.09326ZM33.8554 25.6671L32.4519 26.6855V26.686C32.0272 26.9945 31.8491 27.541 32.0109 28.0408L32.5473 29.6941H32.5478C32.7964 30.4323 32.8005 31.231 32.56 31.9718C32.3189 32.7127 31.846 33.356 31.2107 33.8072C30.585 34.2699 29.827 34.5201 29.0481 34.5201C28.2697 34.5201 27.5117 34.2699 26.8856 33.8072L25.4806 32.7842H25.4811C25.0559 32.4752 24.48 32.4752 24.0548 32.7842L22.6512 33.8041H22.6517C21.8079 34.4166 20.7443 34.6424 19.7245 34.4257C18.7046 34.2091 17.8247 33.5697 17.3035 32.667C16.7819 31.7643 16.6677 30.6826 16.9894 29.691L17.5258 28.0394H17.5263C17.6882 27.5401 17.5111 26.9931 17.0869 26.6845L15.6697 25.6661C14.8263 25.0527 14.2823 24.1103 14.1737 23.0732C14.0647 22.0361 14.4011 21.0015 15.0993 20.2266C15.797 19.4518 16.791 19.0098 17.8338 19.0098H19.5691C20.0948 19.0098 20.5606 18.6709 20.7225 18.1701L21.2588 16.5199C21.581 15.5285 22.3092 14.7202 23.2616 14.2959C24.214 13.8723 25.3019 13.8723 26.2543 14.2959C27.2068 14.7201 27.935 15.5285 28.2571 16.5199L28.7935 18.1685H28.794C28.9553 18.6693 29.4211 19.0083 29.9468 19.0083H31.6821C32.7274 19.0042 33.7245 19.4446 34.4252 20.22C35.1265 20.9948 35.4644 22.0314 35.3558 23.0706C35.2472 24.1103 34.7018 25.0542 33.8554 25.6676L33.8554 25.6671ZM29.9512 22.0397H31.6865L31.694 22.0397C31.9752 22.0397 32.2238 22.2208 32.3111 22.4877C32.3978 22.7546 32.3029 23.0474 32.0761 23.2128L30.6726 24.2327C29.9414 24.7553 29.3959 25.4977 29.1153 26.3517C28.8347 27.2051 28.8332 28.1261 29.1118 28.9806V28.9811L29.6481 30.6327C29.7501 30.8991 29.6522 31.201 29.4132 31.3568C29.192 31.5344 28.8769 31.5344 28.6556 31.3568L27.2506 30.3354C26.5266 29.8072 25.6527 29.5225 24.7562 29.5225C23.8596 29.5225 22.9863 29.8072 22.2617 30.3354L20.8582 31.3538C20.6369 31.5314 20.3218 31.5314 20.1006 31.3538C19.8616 31.198 19.7637 30.8961 19.8657 30.6297V30.6292L20.402 28.9791C20.6816 28.1272 20.6826 27.2087 20.4056 26.3563C20.1285 25.5033 19.5875 24.761 18.8609 24.2358L17.4559 23.2128C17.2281 23.0479 17.1327 22.7552 17.22 22.4877C17.3073 22.2208 17.5569 22.0402 17.838 22.0412H19.5733C20.47 22.0432 21.3437 21.7601 22.0693 21.2334C22.7945 20.7063 23.3339 19.9624 23.6089 19.1089L24.1453 17.4588C24.2325 17.1914 24.4812 17.0107 24.7623 17.0107C25.0434 17.0107 25.292 17.1914 25.3793 17.4588L25.9156 19.1073C26.1907 19.9608 26.7301 20.7046 27.4552 21.2318C28.1808 21.7585 29.0546 22.0417 29.9512 22.0397ZM9.59231 64C10.0875 64.001 10.5792 63.9188 11.0476 63.7575L23.2469 59.696V49.9668C19.7518 49.7624 16.3354 48.8444 13.2077 47.2704C10.0799 45.6964 7.3079 43.4988 5.06104 40.813V59.4535C5.06662 60.6551 5.54563 61.8059 6.39354 62.6568C7.24194 63.5078 8.39126 63.9904 9.59231 64ZM42.57 63.1364C43.766 62.2926 44.4738 60.9175 44.4647 59.4535V40.813C42.2178 43.4988 39.4458 45.6964 36.3181 47.2704C33.1903 48.8444 29.7739 49.7624 26.2788 49.9668V59.696L38.4787 63.7575H38.4782C39.8619 64.2329 41.3902 64.001 42.57 63.1364L42.57 63.1364Z" fill="url(#paint0_linear_341_6029)"/>
<defs>
<linearGradient id="paint0_linear_341_6029" x1="24.7634" y1="0" x2="24.7634" y2="64.0001" gradientUnits="userSpaceOnUse">
<stop stop-color="#6AECFF"/>
<stop offset="1" stop-color="#A2FF8B"/>
</linearGradient>
</defs>
</svg>
