<svg width="26" height="33" viewBox="0 0 26 33" fill="none" xmlns="http://www.w3.org/2000/svg">
<path d="M4.68019 32.9999C4.93555 33.0005 5.18908 32.9581 5.43056 32.8749L11.7208 30.7807V25.7641C9.91871 25.6587 8.15708 25.1853 6.54436 24.3737C4.93163 23.5621 3.50229 22.429 2.34375 21.0441V30.6557C2.34663 31.2752 2.59362 31.8686 3.03082 32.3074C3.46828 32.7461 4.0609 32.995 4.68019 32.9999V32.9999Z" fill="white"/>
<path d="M21.6843 32.5547C22.301 32.1195 22.666 31.4105 22.6613 30.6557V21.0441C21.5027 22.429 20.0734 23.5621 18.4607 24.3737C16.8479 25.1853 15.0863 25.6587 13.2842 25.7641V30.7807L19.5747 32.8749H19.5745C20.2879 33.12 21.076 33.0005 21.6843 32.5546L21.6843 32.5547Z" fill="white"/>
<path d="M16.0725 11.3644H15.1777C14.7154 11.3654 14.2649 11.2194 13.8907 10.9479C13.5168 10.676 13.2387 10.2925 13.0969 9.85242L12.8203 9.00239C12.7753 8.8645 12.6471 8.77136 12.5022 8.77136C12.3572 8.77136 12.229 8.8645 12.184 9.00239L11.9075 9.85323C11.7657 10.2933 11.4875 10.6769 11.1136 10.9487C10.7395 11.2203 10.289 11.3662 9.82663 11.3652H8.93185C8.7869 11.3647 8.65818 11.4578 8.61318 11.5954C8.56818 11.7333 8.61736 11.8843 8.73484 11.9693L9.45929 12.4968C9.83395 12.7676 10.1129 13.1504 10.2557 13.5902C10.3986 14.0297 10.3981 14.5033 10.2539 14.9425L9.97735 15.7934V15.7936C9.92477 15.931 9.97526 16.0867 10.0985 16.167C10.2126 16.2586 10.375 16.2586 10.4891 16.167L11.2128 15.6419C11.5864 15.3695 12.0367 15.2227 12.499 15.2227C12.9613 15.2227 13.4119 15.3695 13.7852 15.6419L14.5097 16.1686C14.6238 16.2601 14.7862 16.2601 14.9003 16.1686C15.0235 16.0882 15.074 15.9326 15.0214 15.7952L14.7449 14.9436V14.9433C14.6013 14.5027 14.602 14.0278 14.7467 13.5878C14.8914 13.1474 15.1727 12.7647 15.5497 12.4952L16.2734 11.9693C16.3903 11.884 16.4393 11.7331 16.3945 11.5954C16.3495 11.4578 16.2213 11.3644 16.0764 11.3644L16.0725 11.3644Z" fill="white"/>
<path d="M12.5028 4.68872C10.4304 4.68872 8.44273 5.5121 6.97729 6.97754C5.51185 8.44298 4.68848 10.4307 4.68848 12.5031C4.68848 14.5755 5.51185 16.5631 6.97729 18.0286C8.44273 19.494 10.4304 20.3174 12.5028 20.3174C14.5752 20.3174 16.5629 19.494 18.0283 18.0286C19.4938 16.5631 20.3172 14.5755 20.3172 12.5031C20.3148 10.4314 19.4909 8.44505 18.0257 6.98015C16.5608 5.51498 14.5745 4.69106 12.5028 4.68872ZM17.1914 13.2346L16.4677 13.7597V13.76C16.2487 13.919 16.1568 14.2008 16.2403 14.4586L16.5168 15.311H16.5171C16.6453 15.6917 16.6474 16.1035 16.5234 16.4855C16.3991 16.8675 16.1553 17.1992 15.8277 17.4318C15.5051 17.6705 15.1142 17.7994 14.7126 17.7994C14.3112 17.7994 13.9204 17.6705 13.5975 17.4318L12.8731 16.9044H12.8733C12.6541 16.745 12.3571 16.745 12.1379 16.9044L11.4142 17.4303H11.4145C10.9794 17.7461 10.4309 17.8625 9.90508 17.7508C9.37919 17.6391 8.92551 17.3094 8.65679 16.844C8.38783 16.3785 8.32896 15.8207 8.49483 15.3095L8.77138 14.4578H8.77165C8.85511 14.2004 8.7638 13.9183 8.54507 13.7592L7.81432 13.2341C7.37948 12.9178 7.09898 12.4319 7.04299 11.8971C6.98674 11.3624 7.1602 10.8289 7.52022 10.4294C7.87997 10.0298 8.39249 9.80195 8.9302 9.80195H9.82497C10.096 9.80195 10.3362 9.62718 10.4197 9.36895L10.6962 8.51811C10.8624 8.00687 11.2378 7.59011 11.7289 7.37136C12.22 7.15289 12.781 7.15289 13.2721 7.37136C13.7631 7.59008 14.1386 8.00687 14.3047 8.51811L14.5813 9.36814H14.5816C14.6648 9.62638 14.9049 9.80115 15.176 9.80115H16.0708C16.6097 9.79906 17.1239 10.0262 17.4852 10.4259C17.8467 10.8255 18.021 11.36 17.965 11.8958C17.909 12.4319 17.6278 12.9186 17.1913 13.2348L17.1914 13.2346Z" fill="white"/>
<path d="M12.5028 0.000134013C9.18674 0.000134013 6.00657 1.31748 3.66216 3.66229C1.31735 6.00684 0 9.18701 0 12.5029C0 15.8188 1.31735 18.9991 3.66216 21.3435C6.0067 23.6883 9.18688 25.0056 12.5028 25.0056C15.8186 25.0056 18.9989 23.6883 21.3433 21.3435C23.6882 18.9989 25.0055 15.8188 25.0055 12.5029C25.0016 9.18822 23.6829 6.01032 21.3392 3.66631C18.9952 1.32257 15.8174 0.0038848 12.5026 0L12.5028 0.000134013ZM12.5028 21.8803C10.0159 21.8803 7.63082 20.8923 5.87207 19.1338C4.1136 17.3751 3.12566 14.99 3.12566 12.5032C3.12566 10.0163 4.1136 7.63122 5.87207 5.87247C7.63082 4.114 10.0159 3.12606 12.5028 3.12606C14.9896 3.12606 17.3747 4.114 19.1334 5.87247C20.8919 7.63122 21.8799 10.0163 21.8799 12.5032C21.8772 14.9892 20.8882 17.3727 19.1303 19.1307C17.3723 20.8886 14.9888 21.8776 12.5028 21.8803Z" fill="white"/>
</svg>
