<svg width="56" height="53" viewBox="0 0 56 53" fill="none" xmlns="http://www.w3.org/2000/svg">
<path d="M31.3648 5.56451C29.9907 4.07216 28.0473 3.33908 26.03 3.55075L12.3843 4.98329C9.57307 5.27893 7.33058 7.34256 6.80528 10.1211L1.58727 37.7212C1.21048 39.7142 1.78229 41.7126 3.15658 43.203C4.53078 44.6955 6.47642 45.4289 8.49148 45.2169L18.6782 44.1467C18.5647 43.0955 18.6081 42.0291 18.8071 40.9767L21.1768 28.4423C21.6745 25.8101 23.1097 23.4777 25.2218 21.8798C26.773 20.7017 28.635 19.9682 30.6003 19.7602L31.2989 19.6962L32.9339 11.0484C33.3107 9.0554 32.7388 7.057 31.3646 5.56448L31.3648 5.56451Z" fill="#6E55FF"/>
<path d="M51.6078 30.1829L49.2381 42.7173C48.7132 45.4938 46.4723 47.56 43.6594 47.8531L30.0137 49.2858C29.3813 49.3534 28.7555 49.3266 28.1529 49.2126C26.8334 48.9632 25.6219 48.2973 24.6788 47.2718C24.2481 46.8026 23.8952 46.2877 23.6294 45.736C23.3046 45.0727 23.102 44.3635 23.029 43.6296C23.0268 43.6291 23.0248 43.6288 23.0222 43.6304L23.0272 43.6269C22.9695 43.0252 22.9926 42.4077 23.1093 41.79L25.4791 29.2555C25.7224 27.9685 26.3338 26.8336 27.1993 25.9583C28.0647 25.0831 29.1845 24.4657 30.4452 24.2113C30.6468 24.1714 30.8514 24.1386 31.0583 24.1177L32.7275 23.9429L44.7041 22.6851C46.7213 22.4734 48.6648 23.2065 50.0389 24.699C51.4131 26.1915 51.9847 28.1899 51.608 30.1829L51.6078 30.1829Z" fill="#6E55FF"/>
</svg>
