<svg width="54" height="54" viewBox="0 0 54 54" fill="none" xmlns="http://www.w3.org/2000/svg">
<path d="M17.6807 35.1169C8.05311 34.982 0.134733 42.6814 -0.000158188 52.309L34.8729 52.7976C35.0078 43.17 27.3082 35.2517 17.6806 35.1169L17.6807 35.1169Z" fill="#883AFF"/>
<path d="M17.9246 17.6809C18.0595 8.05327 10.36 0.134891 0.732422 0L0.243822 34.8731C9.87145 35.008 17.7897 27.3085 17.9246 17.6808L17.9246 17.6809Z" fill="#02DBFF"/>
<path d="M35.3611 17.925C44.9887 18.0599 52.9071 10.3605 53.042 0.73274L18.1689 0.244141C18.0341 9.87177 25.7335 17.79 35.3612 17.9249L35.3611 17.925Z" fill="#FEB23F"/>
<path d="M35.117 35.3618C34.9821 44.9894 42.6816 52.9078 52.3092 53.0427L52.7978 18.1696C43.1702 18.0347 35.2519 25.7341 35.117 35.3619L35.117 35.3618Z" fill="#00DA71"/>
</svg>
