<svg width="44" height="52" viewBox="0 0 44 52" fill="none" xmlns="http://www.w3.org/2000/svg">
<path d="M0.172852 0.928223L0.237923 30.3811C0.264236 42.2906 9.97469 51.9584 21.8844 51.9321C33.7942 51.9058 43.4618 42.1954 43.4355 30.2856L43.3704 0.832784L0.172852 0.928223ZM4.10856 4.84658L39.4518 4.76849L39.4808 17.8883C35.5564 12.3409 29.0855 8.71844 21.7888 8.73457C14.492 8.75069 8.03721 12.4017 4.13731 17.9664L4.10833 4.84658L4.10856 4.84658ZM21.8758 48.0049C12.7953 48.0249 5.27719 41.1567 4.27774 32.3356L39.4044 32.2579C38.4439 41.0834 30.9562 47.9848 21.8758 48.0049V48.0049ZM4.27022 28.4085C5.23069 19.583 12.717 12.6817 21.7974 12.6616C30.8778 12.6415 38.3948 19.5097 39.394 28.3309L4.27022 28.4085Z" fill="#8366FF"/>
</svg>
