<svg width="51" height="56" viewBox="0 0 51 56" fill="none" xmlns="http://www.w3.org/2000/svg">
<path d="M48.1362 12.1681C48.7154 13.0369 49.0893 14.0262 49.2296 15.061C49.3699 16.0957 49.2728 17.1488 48.9458 18.1405C48.6188 19.1322 48.0705 20.0365 47.3422 20.7848C46.614 21.5332 45.725 22.1061 44.7426 22.46C37.6625 25.0016 29.9389 25.1204 22.7839 22.7978C15.629 20.4752 9.44774 15.8425 5.21038 9.62703L16.4616 1.7829C18.9942 5.4953 22.6828 8.26663 26.9535 9.66579C31.2242 11.0649 35.8375 11.0135 40.076 9.51942C41.521 8.99908 43.0983 8.97593 44.558 9.45363C46.0177 9.93133 47.2761 10.8826 48.1339 12.1565L48.1362 12.1681Z" fill="#9C5AFF"/>
<path d="M48.1033 12.1178C47.0781 10.6155 45.4983 9.58177 43.7111 9.24393C41.924 8.90609 40.0759 9.29177 38.573 10.3162L4.55961 33.5143C3.0573 34.5395 2.0236 36.1193 1.68576 37.9064C1.34792 39.6936 1.7336 41.5417 2.75802 43.0445V43.0445C3.26526 43.7889 3.9142 44.426 4.66777 44.9194C5.42134 45.4128 6.26475 45.7529 7.14981 45.9202C8.03487 46.0875 8.94422 46.0788 9.82591 45.8945C10.7076 45.7102 11.5443 45.354 12.2883 44.8461L46.3017 21.648C47.046 21.1408 47.6831 20.4918 48.1765 19.7383C48.6699 18.9847 49.01 18.1413 49.1773 17.2562C49.3446 16.3712 49.3359 15.4618 49.1516 14.5801C48.9673 13.6985 48.6111 12.8617 48.1033 12.1178Z" fill="url(#paint0_linear_497_979)"/>
<path d="M2.73386 42.9839C2.1545 42.1154 1.78041 41.1264 1.63992 40.0919C1.49943 39.0574 1.59623 38.0044 1.92299 37.0129C2.24975 36.0213 2.7979 35.1171 3.5259 34.3688C4.25391 33.6205 5.14267 33.0477 6.12487 32.6938C13.2053 30.1529 20.9289 30.0342 28.084 32.3564C35.2391 34.6787 41.4209 39.3104 45.6597 45.525L34.4038 53.3704C31.8711 49.658 28.1825 46.8867 23.9118 45.4876C19.6412 44.0884 15.0278 44.1399 10.7894 45.6339C9.34327 46.152 7.76562 46.1727 6.30643 45.6926C4.84723 45.2126 3.58997 44.2593 2.73386 42.9839V42.9839Z" fill="url(#paint1_linear_497_979)"/>
<defs>
<linearGradient id="paint0_linear_497_979" x1="49.2436" y1="14.5231" x2="15.4987" y2="33.0249" gradientUnits="userSpaceOnUse">
<stop stop-color="#22BFFF"/>
<stop offset="0.15" stop-color="#22BFFF" stop-opacity="0.84"/>
<stop offset="0.57" stop-color="#22BFFF" stop-opacity="0.39"/>
<stop offset="0.87" stop-color="#22BFFF" stop-opacity="0.11"/>
<stop offset="1" stop-color="#22BFFF" stop-opacity="0"/>
</linearGradient>
<linearGradient id="paint1_linear_497_979" x1="2.33855" y1="37.4625" x2="45.4163" y2="45.2807" gradientUnits="userSpaceOnUse">
<stop stop-color="#FFC99E"/>
<stop offset="0.67" stop-color="#FF87A4"/>
<stop offset="1" stop-color="#FF6BA6"/>
</linearGradient>
</defs>
</svg>
